<svg width="0" height="0" class="hidden">
  <symbol xmlns="http://www.w3.org/2000/svg" viewBox="0 0 24 24" id="Cookie">sprite
    <path fill-rule="evenodd" clip-rule="evenodd" d="M18.3323 1.95686C18.8813 1.95686 19.3272 2.40497 19.3272 2.95674C19.3272 3.5085 18.8813 3.95661 18.3323 3.95661C17.7834 3.95661 17.3375 3.5085 17.3375 2.95674C17.3392 2.40497 17.7834 1.95686 18.3323 1.95686ZM18.5985 10.6648C19.4569 11.9522 20.5432 12.3468 21.9539 11.4757C22.0005 11.9606 22.0121 12.4555 21.9872 12.9571C21.7094 18.5016 17.0131 22.7703 11.4968 22.491C5.98213 22.2101 1.73508 17.49 2.01289 11.9472C2.28904 6.40278 7.14828 2.08728 12.663 2.36651C12.1739 3.90478 12.5881 5.27082 13.8324 5.73565C12.7045 9.37732 15.2232 11.76 18.5985 10.6648ZM6.99523 9.94748C7.82202 9.94748 8.49077 10.6213 8.49077 11.4506C8.49077 12.28 7.82035 12.9538 6.99523 12.9538C6.16845 12.9538 5.4997 12.28 5.4997 11.4506C5.4997 10.6213 6.17011 9.94748 6.99523 9.94748ZM11.7064 11.8636C12.1822 11.8636 12.5681 12.2515 12.5681 12.7297C12.5681 13.2079 12.1822 13.5958 11.7064 13.5958C11.2306 13.5958 10.8447 13.2079 10.8447 12.7297C10.843 12.2515 11.229 11.8636 11.7064 11.8636ZM7.96675 15.4317C8.54733 15.4317 9.01811 15.9049 9.01811 16.4885C9.01811 17.072 8.54733 17.5452 7.96675 17.5452C7.38617 17.5452 6.91538 17.072 6.91538 16.4885C6.91538 15.9032 7.38617 15.4317 7.96675 15.4317ZM10.2325 7.34581C10.6883 7.34581 11.056 7.717 11.056 8.17346C11.056 8.6316 10.6867 9.00111 10.2325 9.00111C9.77669 9.00111 9.40905 8.62992 9.40905 8.17346C9.40905 7.717 9.77836 7.34581 10.2325 7.34581ZM14.7075 15.8013C15.471 15.8013 16.0882 16.4232 16.0882 17.189C16.0882 17.9565 15.4694 18.5768 14.7075 18.5768C13.9439 18.5768 13.3267 17.9548 13.3267 17.189C13.3267 16.4232 13.9456 15.8013 14.7075 15.8013ZM17.6154 5.81925C18.1277 5.81925 18.5436 6.23725 18.5436 6.75224C18.5436 7.26722 18.1277 7.68523 17.6154 7.68523C17.103 7.68523 16.6871 7.26722 16.6871 6.75224C16.6871 6.23725 17.103 5.81925 17.6154 5.81925Z" ></path>
  </symbol>
  <symbol xmlns="http://www.w3.org/2000/svg" viewBox="0 0 24 24" id="INST">
    <path d="M16.9998 1.99983C18.3248 2.00378 19.5944 2.53187 20.5312 3.46877C21.4682 4.40567 21.9963 5.67523 22.0002 7.00019V16.9999C21.9963 18.3249 21.4682 19.5944 20.5312 20.5313C19.5944 21.4682 18.3248 21.9962 16.9998 22.0002H7.00019C5.67523 21.9962 4.40566 21.4682 3.46877 20.5313C2.53187 19.5944 2.00378 18.3249 1.99983 16.9999V7.00019C2.00378 5.67523 2.53187 4.40567 3.46877 3.46877C4.40566 2.53187 5.67523 2.00378 7.00019 1.99983H16.9998ZM16.9998 0H7.00019C3.15 0 0 3.15 0 7.00019V16.9999C0 20.85 3.15 24 7.00019 24H16.9998C20.8501 24 24 20.85 24 16.9999V7.00019C24 3.15 20.8501 0 16.9998 0Z" ></path>
    <path d="M18.4993 7.00059C18.2026 7.00059 17.9126 6.91261 17.6659 6.74779C17.4194 6.58297 17.2271 6.3487 17.1136 6.07461C17.0001 5.80051 16.9703 5.49892 17.0282 5.20795C17.0861 4.91697 17.2289 4.64969 17.4387 4.43992C17.6485 4.23015 17.9157 4.08727 18.2067 4.02939C18.4977 3.97153 18.7993 4.00123 19.0734 4.11476C19.3474 4.22828 19.5817 4.42054 19.7466 4.66722C19.9114 4.91389 19.9994 5.20391 19.9994 5.50059C19.9998 5.69768 19.9613 5.89293 19.886 6.07511C19.8108 6.25728 19.7003 6.42281 19.561 6.56219C19.4216 6.70156 19.2561 6.81204 19.0739 6.88726C18.8917 6.9625 18.6965 7.001 18.4993 7.00059ZM11.9995 8.00023C12.7907 8.00023 13.5641 8.23484 14.2219 8.67438C14.8797 9.11393 15.3925 9.73867 15.6952 10.4696C15.998 11.2006 16.0772 12.0049 15.9228 12.7808C15.7685 13.5568 15.3875 14.2695 14.8281 14.829C14.2686 15.3884 13.5559 15.7695 12.7799 15.9238C12.004 16.0781 11.1997 15.9989 10.4687 15.6962C9.73778 15.3933 9.11304 14.8806 8.67349 14.2228C8.23395 13.565 7.99934 12.7916 7.99934 12.0004C8.00047 10.9398 8.42229 9.92305 9.17222 9.17311C9.92216 8.42317 10.939 8.00136 11.9995 8.00023ZM11.9995 6.0004C10.8128 6.0004 9.6528 6.3523 8.6661 7.01159C7.67941 7.67088 6.91037 8.60795 6.45624 9.70432C6.00211 10.8007 5.8833 12.0071 6.1148 13.171C6.34632 14.3349 6.91777 15.4039 7.75688 16.243C8.59599 17.0821 9.66509 17.6537 10.829 17.8852C11.9929 18.1166 13.1993 17.9979 14.2956 17.5437C15.392 17.0896 16.3291 16.3206 16.9884 15.3339C17.6476 14.3472 17.9995 13.1872 17.9995 12.0004C17.9995 10.4091 17.3674 8.88299 16.2422 7.75777C15.1169 6.63255 13.5909 6.0004 11.9995 6.0004Z" ></path>
  </symbol>
  <symbol xmlns="http://www.w3.org/2000/svg" viewBox="0 0 24 24" id="FB">
    <path fill-rule="evenodd" clip-rule="evenodd" d="M24 12.0725C24 5.40566 18.6268 0 12 0C5.37321 0 0 5.40566 0 12.0725C0 18.0979 4.3875 23.0924 10.125 23.9988V15.5632H7.07733V12.0725H10.125V9.41274C10.125 6.38762 11.917 4.71526 14.6577 4.71526C15.9708 4.71526 17.3443 4.95133 17.3443 4.95133V7.92255H15.8304C14.3405 7.92255 13.8745 8.85278 13.8745 9.80887V12.0725H17.2023L16.6709 15.5632H13.875V24C19.6125 23.0939 24 18.0995 24 12.0725Z" ></path>
  </symbol>
  <symbol xmlns="http://www.w3.org/2000/svg" viewBox="0 0 24 24" id="PIN">
    <path d="M12.0027 0C5.37442 0 0 5.37201 0 11.9973C0 16.9088 2.9578 21.1293 7.18553 22.9878C7.15338 22.1522 7.18018 21.1453 7.39451 20.2348C7.62492 19.26 8.93772 13.6951 8.93772 13.6951C8.93772 13.6951 8.5519 12.9292 8.5519 11.7992C8.5519 10.021 9.58072 8.6927 10.8667 8.6927C11.9598 8.6927 12.485 9.51217 12.485 10.4923C12.485 11.5903 11.783 13.2292 11.424 14.7502C11.1239 16.025 12.0616 17.0587 13.3208 17.0587C15.5928 17.0587 17.1253 14.1397 17.1253 10.6798C17.1253 8.05 15.3517 6.08436 12.1313 6.08436C8.49297 6.08436 6.22103 8.79982 6.22103 11.8313C6.22103 12.8757 6.53182 13.6149 7.01407 14.1826C7.23375 14.445 7.2659 14.5521 7.18553 14.852C7.12659 15.0716 6.99799 15.6019 6.93905 15.8161C6.85868 16.1215 6.61219 16.2285 6.33892 16.1161C4.66175 15.4305 3.87943 13.5988 3.87943 11.5314C3.87943 8.12498 6.75686 4.03839 12.4582 4.03839C17.0395 4.03839 20.0563 7.35371 20.0563 10.9101C20.0563 15.6179 17.4361 19.1315 13.578 19.1315C12.2814 19.1315 11.065 18.4298 10.647 17.6371C10.647 17.6371 9.95044 20.4008 9.8004 20.9364C9.54855 21.863 9.05024 22.7843 8.59477 23.5072C9.69961 23.833 10.8454 23.999 11.9973 24C18.6256 24 24 18.6279 24 12.0027C24 5.37737 18.631 0 12.0027 0Z" ></path>
  </symbol>
  <symbol xmlns="http://www.w3.org/2000/svg" viewBox="0 0 24 24" id="Apartment">
    <path d="M17 11V5C17 3.9 16.1 3 15 3H9C7.9 3 7 3.9 7 5V7H5C3.9 7 3 7.9 3 9V19C3 20.1 3.9 21 5 21H11V17H13V21H19C20.1 21 21 20.1 21 19V13C21 11.9 20.1 11 19 11H17ZM7 19H5V17H7V19ZM7 15H5V13H7V15ZM7 11H5V9H7V11ZM11 15H9V13H11V15ZM11 11H9V9H11V11ZM11 7H9V5H11V7ZM15 15H13V13H15V15ZM15 11H13V9H15V11ZM15 7H13V5H15V7ZM19 19H17V17H19V19ZM19 15H17V13H19V15Z" ></path>
  </symbol>
  <symbol xmlns="http://www.w3.org/2000/svg" viewBox="0 0 24 24" id="Arrow-Inverse">
    <path d="M13.8647 5.0018C14.1295 5.00135 14.3861 5.08254 14.59 5.2313C14.7048 5.31506 14.7996 5.41793 14.8692 5.53402C14.9387 5.65011 14.9815 5.77714 14.9952 5.90782C15.0089 6.03851 14.9932 6.17029 14.9489 6.29562C14.9047 6.42094 14.8328 6.53735 14.7374 6.63818L9.66033 11.9863L14.556 17.3444C14.6502 17.4465 14.7205 17.5639 14.7629 17.69C14.8053 17.8161 14.819 17.9482 14.8032 18.079C14.7874 18.2097 14.7424 18.3364 14.6708 18.4518C14.5992 18.5672 14.5025 18.669 14.386 18.7513C14.2688 18.8421 14.1315 18.9107 13.9827 18.9526C13.834 18.9945 13.677 19.0088 13.5216 18.9948C13.3663 18.9807 13.2159 18.9385 13.0799 18.8709C12.9439 18.8032 12.8253 18.7116 12.7315 18.6016L7.2578 12.6149C7.09112 12.4364 7 12.2124 7 11.9813C7 11.7502 7.09112 11.5263 7.2578 11.3477L12.9241 5.36101C13.0378 5.24026 13.1822 5.14481 13.3457 5.0824C13.5091 5.01999 13.6869 4.99238 13.8647 5.0018Z" ></path>
  </symbol>
  <symbol xmlns="http://www.w3.org/2000/svg" viewBox="0 0 24 24" id="Arrow">
    <path d="M10.1353 5.0018C9.87047 5.00135 9.61386 5.08254 9.40997 5.2313C9.29522 5.31506 9.20036 5.41793 9.13083 5.53402C9.0613 5.65011 9.01847 5.77714 9.00479 5.90782C8.9911 6.03851 9.00683 6.17029 9.05108 6.29562C9.09533 6.42094 9.16722 6.53735 9.26265 6.63818L14.3397 11.9863L9.44397 17.3444C9.34983 17.4465 9.27953 17.5639 9.23711 17.69C9.19469 17.8161 9.18099 17.9482 9.19679 18.079C9.21258 18.2097 9.25757 18.3364 9.32916 18.4518C9.40075 18.5672 9.49754 18.669 9.61396 18.7513C9.73121 18.8421 9.86853 18.9107 10.0173 18.9526C10.166 18.9945 10.323 19.0088 10.4784 18.9948C10.6337 18.9807 10.7841 18.9385 10.9201 18.8709C11.0561 18.8032 11.1747 18.7116 11.2685 18.6016L16.7422 12.6149C16.9089 12.4364 17 12.2124 17 11.9813C17 11.7502 16.9089 11.5263 16.7422 11.3477L11.0759 5.36101C10.9622 5.24026 10.8178 5.14481 10.6543 5.0824C10.4909 5.01999 10.3131 4.99238 10.1353 5.0018Z" ></path>
  </symbol>
  <symbol xmlns="http://www.w3.org/2000/svg" viewBox="0 0 16 16" id="arrow-down">
    <path d="M12.6654 6.75684C12.6657 6.58031 12.6116 6.40924 12.5125 6.27331C12.4566 6.19681 12.388 6.13357 12.3106 6.08722C12.2332 6.04087 12.1486 6.01231 12.0614 6.00319C11.9743 5.99407 11.8865 6.00456 11.8029 6.03405C11.7194 6.06355 11.6417 6.11148 11.5745 6.1751L8.0091 9.55978L4.43702 6.29598C4.36898 6.23322 4.29069 6.18636 4.20665 6.15808C4.12261 6.1298 4.03448 6.12066 3.94732 6.13119C3.86016 6.14172 3.7757 6.17171 3.69877 6.21944C3.62185 6.26717 3.554 6.33169 3.4991 6.40931C3.43855 6.48747 3.39287 6.57902 3.36494 6.67819C3.33701 6.77736 3.32743 6.88201 3.3368 6.98559C3.34617 7.08916 3.37428 7.18942 3.41938 7.28007C3.46449 7.37072 3.5256 7.4498 3.59888 7.51235L7.59003 11.1615C7.70906 11.2726 7.85835 11.3333 8.01243 11.3333C8.1665 11.3333 8.3158 11.2726 8.43483 11.1615L12.426 7.38391C12.5065 7.30812 12.5701 7.21185 12.6117 7.10289C12.6533 6.99394 12.6717 6.87538 12.6654 6.75684Z"/>
  </symbol>
  <symbol xmlns="http://www.w3.org/2000/svg" viewBox="0 0 24 24" id="Bath">
    <path d="M19.9043 11.9665H4.09568C3.47311 11.9665 2.96649 12.4731 2.96649 13.0957C2.96649 13.7183 3.47311 14.2249 4.09568 14.2249H19.9043C20.5269 14.2249 21.0335 13.7183 21.0335 13.0957C21.0335 12.4731 20.5269 11.9665 19.9043 11.9665Z" ></path>
    <path d="M20.0081 13.4864C19.8041 13.4292 19.5994 13.5451 19.5429 13.7454L19.5136 13.8485H4.48707L4.45697 13.7454C4.40051 13.5451 4.19426 13.4307 3.99175 13.4864C3.79149 13.5436 3.67631 13.7522 3.73355 13.9516L4.77088 17.5831C5.09231 18.7085 6.1342 19.4944 7.30404 19.4944H16.6951C17.8657 19.4944 18.9068 18.7085 19.2283 17.5831L20.2656 13.9516C20.3236 13.7521 20.2076 13.5436 20.0081 13.4864ZM7.30478 17.9888C6.80342 17.9888 6.35626 17.6523 6.21924 17.1698L5.73069 15.4579C5.67349 15.2577 5.78941 15.0499 5.98889 14.9927C6.19063 14.9355 6.39766 15.0522 6.45412 15.2517L6.94267 16.9635C6.98935 17.1239 7.13763 17.2368 7.30475 17.2368C7.51252 17.2368 7.68115 17.4054 7.68115 17.6132C7.68119 17.821 7.51255 17.9888 7.30478 17.9888Z" ></path>
    <path d="M8.02756 18.7808C7.84163 18.6897 7.61653 18.7627 7.52242 18.9494L6.76964 20.455C6.67705 20.6409 6.75231 20.8668 6.93828 20.9601C6.99322 20.9872 7.05046 21 7.10692 21C7.24468 21 7.37718 20.924 7.44341 20.7915L8.1962 19.2859C8.28879 19.0999 8.21349 18.8741 8.02756 18.7808Z" ></path>
    <path d="M17.2304 20.4557L16.4776 18.9501C16.3843 18.7634 16.1584 18.6889 15.9725 18.7815C15.7865 18.8748 15.7112 19.1007 15.8038 19.2866L16.5566 20.7922C16.6228 20.924 16.7553 21 16.8931 21C16.9496 21 17.0068 20.9872 17.0617 20.9609C17.2477 20.8675 17.323 20.6417 17.2304 20.4557Z" ></path>
    <path d="M18.0863 3C17.7024 3 17.341 3.14979 17.0693 3.42158L15.8746 4.61626C15.7278 4.76305 15.7278 5.0017 15.8746 5.14849C16.0214 5.29529 16.2601 5.29529 16.4069 5.14849L17.6015 3.95455C17.7302 3.82508 17.9026 3.75356 18.0901 3.75356C18.4679 3.75356 18.7751 4.0607 18.7751 4.43858V12.3429C18.7751 12.5507 18.9437 12.7193 19.1515 12.7193C19.3593 12.7193 19.5279 12.5507 19.5286 12.3422V4.43784C19.5287 3.64515 18.8843 3 18.0863 3Z" ></path>
    <path d="M16.7832 4.99265L16.0304 4.23987C15.9446 4.15406 15.8249 4.11415 15.7029 4.13447L13.821 4.44313C13.6825 4.46571 13.5688 4.56356 13.5244 4.69607C13.4799 4.82857 13.5138 4.9761 13.6117 5.07621L15.8701 7.40234C15.9416 7.47687 16.0402 7.51678 16.1396 7.51678C16.175 7.51678 16.2111 7.51152 16.2465 7.50097C16.3804 7.46183 16.4821 7.35117 16.5092 7.21415L16.8856 5.33219C16.9104 5.20946 16.872 5.08221 16.7832 4.99265Z" ></path>
    <path d="M11.8893 7.56041C11.7425 7.41362 11.5039 7.41362 11.3571 7.56041L10.6043 8.31319C10.4575 8.45999 10.4575 8.69864 10.6043 8.84543C10.6781 8.91844 10.7744 8.95535 10.8708 8.95535C10.9672 8.95535 11.0635 8.91847 11.1365 8.84543L11.8893 8.09265C12.0361 7.94582 12.0361 7.70721 11.8893 7.56041Z" ></path>
    <path d="M13.3949 9.06597C13.2481 8.91917 13.0094 8.91917 12.8626 9.06597L12.1099 9.81875C11.9631 9.96554 11.9631 10.2042 12.1099 10.351C12.1836 10.424 12.28 10.4609 12.3763 10.4609C12.4727 10.4609 12.569 10.424 12.6421 10.351L13.3949 9.5982C13.5417 9.45141 13.5417 9.21276 13.3949 9.06597Z" ></path>
    <path d="M14.1477 6.80759C14.0009 6.6608 13.7623 6.6608 13.6155 6.80759L12.8627 7.56037C12.7159 7.70717 12.7159 7.94581 12.8627 8.09261C12.9365 8.16562 13.0328 8.20253 13.1292 8.20253C13.2256 8.20253 13.3219 8.16565 13.395 8.09261L14.1477 7.33983C14.2945 7.19303 14.2945 6.95439 14.1477 6.80759Z" ></path>
  </symbol>
  <symbol xmlns="http://www.w3.org/2000/svg" viewBox="0 0 24 24" id="Bed">
    <path d="M17.85 11.0769C19.5535 11.0769 21 12.4964 21 14.3077V17.0769H19.65V18H18.75V17.0769H5.25V18H4.35V17.0769H3V14.3077C3 12.5606 4.39756 11.0769 6.15 11.0769H17.85ZM16.95 6C18.1599 6 19.2003 6.99766 19.2 8.30769L19.2003 10.5128C18.7911 10.2826 18.3332 10.1538 17.85 10.1538L16.95 10.1534C16.95 9.36294 16.319 8.76923 15.6 8.76923H12.9C12.5543 8.76923 12.2389 8.90253 12 9.12176C11.7615 8.9027 11.446 8.76923 11.1 8.76923H8.4C7.65457 8.76923 7.05024 9.38889 7.05 10.1534L6.15 10.1538C5.6669 10.1538 5.2092 10.2825 4.8 10.5126V8.30769C4.8 7.06673 5.77046 6 7.05 6H16.95ZM11.1 9.69208C11.3442 9.69208 11.55 9.92285 11.55 10.1538L7.95 10.1534C7.95 9.871 8.16922 9.69231 8.4 9.69231L11.1 9.69208ZM15.6 9.69541C15.8546 9.69207 16.0498 9.9169 16.05 10.1534H12.45C12.45 9.86697 12.6692 9.69231 12.9 9.69231L15.6 9.69541Z" ></path>
  </symbol>
  <symbol xmlns="http://www.w3.org/2000/svg" viewBox="0 0 24 24" id="Burger">
    <path d="M2 4H22" stroke-width="2" stroke-linecap="round" stroke-linejoin="round"></path>
    <path d="M2 12H22" stroke-width="2" stroke-linecap="round" stroke-linejoin="round"></path>
    <path d="M2 20H22" stroke-width="2" stroke-linecap="round" stroke-linejoin="round"></path>
  </symbol>
  <symbol xmlns="http://www.w3.org/2000/svg" viewBox="0 0 24 24" id="Call">
    <path d="M8.38436 2.4792C8.90946 2.32088 9.47295 2.34718 9.98101 2.55373C10.4891 2.76027 10.9111 3.1346 11.1768 3.6144L11.2668 3.7932L12.06 5.5584C12.3011 6.09418 12.3793 6.68902 12.285 7.26892C12.1907 7.84883 11.928 8.38822 11.5296 8.82L11.3712 8.9784L10.1184 10.146C9.89276 10.3596 10.062 11.1864 10.8792 12.6C11.6124 13.872 12.2112 14.466 12.504 14.4984H12.5556L12.6192 14.4864L15.0792 13.734C15.4098 13.6326 15.7626 13.6286 16.0954 13.7224C16.4283 13.8163 16.727 14.004 16.956 14.2632L17.0664 14.4012L18.6936 16.6572C19.0129 17.0993 19.1721 17.6369 19.1451 18.1815C19.118 18.7262 18.9063 19.2454 18.5448 19.6536L18.3984 19.8048L17.7468 20.4216C17.1627 20.9747 16.4321 21.3485 15.6418 21.4984C14.8516 21.6484 14.0348 21.5683 13.2888 21.2676C10.9668 20.3316 8.85716 18.1932 6.94076 14.874C5.02076 11.5464 4.22276 8.646 4.57916 6.162C4.68712 5.41098 4.9965 4.70324 5.47443 4.11395C5.95237 3.52467 6.58101 3.07586 7.29356 2.8152L7.52516 2.7384L8.38436 2.4792Z" ></path>
  </symbol>
  <symbol xmlns="http://www.w3.org/2000/svg" viewBox="0 0 24 24" id="Car">
    <path d="M20.5378 7.97141L13.0177 3.28445C12.3982 2.90186 11.5998 2.90577 10.9839 3.29267L3.45608 7.97532C2.98863 8.26911 2.85947 8.86882 3.167 9.31479C3.47494 9.76075 4.10311 9.88437 4.57097 9.59019L12.0078 4.96387L19.4356 9.5941C19.6062 9.69934 19.7969 9.74902 19.9855 9.74902C20.3184 9.74902 20.6432 9.59371 20.8371 9.30814C21.1414 8.85982 21.0069 8.26207 20.5378 7.97141Z" ></path>
    <path d="M18.158 14.0648C18.1005 13.7273 17.8143 13.4776 17.4806 13.4776H17.097L16.9512 11.9222C16.7956 10.2586 15.4488 8.99998 13.8186 8.99998H10.182C8.55138 8.99998 7.20499 10.259 7.04897 11.9222L6.9036 13.4776H6.51962C6.1855 13.4776 5.89971 13.7273 5.84149 14.0648L5.27066 17.3826C5.19988 17.7938 5.31328 18.2171 5.5751 18.5362C5.82703 18.8437 6.19806 19.027 6.58622 19.0407V19.5916C6.58622 20.3715 7.19586 21 7.95734 21H8.39041C9.15112 21 9.7699 20.3715 9.7699 19.5916V19.0497H14.2345V19.5904C14.2345 20.3707 14.8483 21 15.609 21H16.0425C16.8032 21 17.4178 20.3707 17.4178 19.5904V19.0407C17.806 19.027 18.1747 18.8452 18.4259 18.5382C18.6877 18.2183 18.7996 17.7973 18.7296 17.3853L18.158 14.0648ZM7.79294 17.77C7.15096 17.77 6.63037 17.2367 6.63037 16.5777C6.63037 15.9188 7.15096 15.3851 7.79294 15.3851C8.43531 15.3851 8.95628 15.9184 8.95628 16.5777C8.95628 17.2367 8.43531 17.77 7.79294 17.77ZM8.08292 13.4776L8.21726 12.0427C8.31506 10.9995 9.1595 10.2137 10.182 10.2137H10.3917V10.6647C10.3917 11.056 10.695 11.3678 11.0763 11.3678H12.9243C13.3056 11.3678 13.6142 11.056 13.6142 10.6647V10.2141H13.8186C14.8411 10.2141 15.6855 10.9999 15.783 12.0431L15.9177 13.478L8.08292 13.4776ZM16.2061 17.77C15.5641 17.77 15.0436 17.2367 15.0436 16.5777C15.0436 15.9188 15.5641 15.3851 16.2061 15.3851C16.8485 15.3851 17.3695 15.9184 17.3695 16.5777C17.3695 17.2367 16.8485 17.77 16.2061 17.77Z" ></path>
  </symbol>
  <symbol xmlns="http://www.w3.org/2000/svg" viewBox="0 0 24 24" id="Check">
    <path d="M2.00003 12L8.03482 18L22 5" stroke-width="2" stroke-linecap="round"></path>
  </symbol>
  <symbol xmlns="http://www.w3.org/2000/svg" viewBox="0 0 24 24" id="Cross">
    <path d="M4.92896 4.92892L19.0711 19.0711" stroke-width="2" stroke-linecap="round" stroke-linejoin="round"></path>
    <path d="M19.071 4.92896L4.92891 19.0711" stroke-width="2" stroke-linecap="round" stroke-linejoin="round"></path>
  </symbol>
  <symbol xmlns="http://www.w3.org/2000/svg" viewBox="0 0 24 24" id="Fire">
    <path d="M19.5492 10.9969C19.0942 9.97279 18.4328 9.05362 17.6063 8.29688L16.9242 7.6711C16.9011 7.65043 16.8732 7.63577 16.843 7.62839C16.8129 7.62101 16.7814 7.62115 16.7513 7.62879C16.7212 7.63642 16.6935 7.65133 16.6705 7.67219C16.6475 7.69305 16.63 7.71924 16.6195 7.74844L16.3148 8.62266C16.125 9.1711 15.7758 9.73126 15.2812 10.282C15.2484 10.3172 15.2109 10.3266 15.1852 10.3289C15.1594 10.3313 15.1195 10.3266 15.0844 10.2938C15.0516 10.2656 15.0352 10.2234 15.0375 10.1813C15.1242 8.77032 14.7023 7.17891 13.7789 5.44688C13.0148 4.00782 11.9531 2.88516 10.6266 2.10235L9.65859 1.53282C9.53203 1.45782 9.37031 1.55626 9.37734 1.70391L9.42891 2.82891C9.46406 3.59766 9.375 4.27735 9.16406 4.84219C8.90625 5.5336 8.53594 6.17579 8.0625 6.75235C7.73302 7.15304 7.35959 7.51547 6.94922 7.83282C5.96087 8.59258 5.15722 9.5661 4.59844 10.6805C4.04103 11.8046 3.75068 13.0422 3.75 14.2969C3.75 15.4031 3.96797 16.4742 4.39922 17.4844C4.81562 18.457 5.41654 19.3396 6.16875 20.0836C6.92813 20.8336 7.80938 21.4242 8.79141 21.8344C9.80859 22.2609 10.8867 22.4766 12 22.4766C13.1133 22.4766 14.1914 22.2609 15.2086 21.8367C16.1882 21.429 17.079 20.8343 17.8312 20.0859C18.5906 19.3359 19.1859 18.4594 19.6008 17.4867C20.0314 16.4793 20.2523 15.3948 20.25 14.2992C20.25 13.1555 20.0156 12.0445 19.5492 10.9969Z" ></path>
  </symbol>
  <symbol xmlns="http://www.w3.org/2000/svg" viewBox="0 0 24 24" id="House">
    <path d="M21 10.8319V19.5C20.9999 19.7718 20.9262 20.0386 20.7868 20.272C20.6475 20.5054 20.4476 20.6968 20.2084 20.8259C19.9917 20.9432 19.7485 21.0031 19.5021 20.9999H14.9968C14.7978 20.9999 14.6071 20.9209 14.4664 20.7802C14.3258 20.6396 14.2468 20.4488 14.2468 20.2499V15.7492C14.2468 15.5503 14.1677 15.3596 14.0271 15.2189C13.8864 15.0783 13.6957 14.9992 13.4968 14.9992H10.4968C10.2978 14.9992 10.1071 15.0783 9.96643 15.2189C9.82577 15.3596 9.74676 15.5503 9.74676 15.7492V20.2499C9.74676 20.4488 9.66774 20.6396 9.52709 20.7802C9.38644 20.9209 9.19567 20.9999 8.99676 20.9999H4.50023C4.28758 21.0005 4.07726 20.9555 3.88338 20.8682C3.68951 20.7808 3.51654 20.653 3.37607 20.4934C3.12949 20.2082 2.99574 19.8427 3.00004 19.4657V10.8318C3.0002 10.6228 3.04395 10.4161 3.12849 10.225C3.21302 10.0339 3.33649 9.8625 3.49101 9.72178L10.9904 2.90306C11.2658 2.65074 11.6258 2.51076 11.9994 2.51073C12.373 2.51069 12.733 2.6506 13.0085 2.90288L20.5092 9.72187C20.6636 9.86262 20.7871 10.034 20.8716 10.2251C20.9561 10.4163 20.9999 10.6229 21 10.8319Z" ></path>
  </symbol>
  <symbol xmlns="http://www.w3.org/2000/svg" viewBox="0 0 24 24" id="Location">
    <path d="M12 1C14.3869 1 16.6761 1.99337 18.364 3.76159C20.0518 5.5298 21 7.92801 21 10.4286C21 14.934 18.0975 19.081 12.402 22.8776C12.2818 22.9575 12.1424 23 12 23C11.8576 23 11.7182 22.9575 11.598 22.8776C5.9025 19.081 3 14.934 3 10.4286C3 7.92801 3.94821 5.5298 5.63604 3.76159C7.32387 1.99337 9.61305 1 12 1ZM12 7.28576C11.2044 7.28576 10.4413 7.61689 9.87868 8.20629C9.31607 8.7957 9 9.5951 9 10.4286C9 11.2622 9.31607 12.0616 9.87868 12.651C10.4413 13.2404 11.2044 13.5715 12 13.5715C12.7956 13.5715 13.5587 13.2404 14.1213 12.651C14.6839 12.0616 15 11.2622 15 10.4286C15 9.5951 14.6839 8.7957 14.1213 8.20629C13.5587 7.61689 12.7956 7.28576 12 7.28576Z" ></path>
  </symbol>
  <symbol xmlns="http://www.w3.org/2000/svg" viewBox="0 0 24 24" id="Mail">
    <path d="M19 4H5C4.20435 4 3.44129 4.31607 2.87868 4.87868C2.31607 5.44129 2 6.20435 2 7V17C2 17.7956 2.31607 18.5587 2.87868 19.1213C3.44129 19.6839 4.20435 20 5 20H19C19.7956 20 20.5587 19.6839 21.1213 19.1213C21.6839 18.5587 22 17.7956 22 17V7C22 6.20435 21.6839 5.44129 21.1213 4.87868C20.5587 4.31607 19.7956 4 19 4ZM19 6L12.5 10.47C12.348 10.5578 12.1755 10.604 12 10.604C11.8245 10.604 11.652 10.5578 11.5 10.47L5 6H19Z" ></path>
  </symbol>
  <symbol xmlns="http://www.w3.org/2000/svg" viewBox="0 0 24 24" id="Star">
    <path d="M22.9419 8.89802C22.8727 8.6944 22.7454 8.51548 22.5758 8.38335C22.4061 8.25122 22.2014 8.17167 21.9871 8.15452L15.7159 7.65628L13.0022 1.64998C12.9158 1.45653 12.7752 1.29222 12.5974 1.17688C12.4197 1.06155 12.2124 1.00012 12.0004 1C11.7885 0.999884 11.5811 1.06109 11.4033 1.17623C11.2254 1.29137 11.0846 1.45552 10.998 1.64888L8.28427 7.65628L2.01313 8.15452C1.80243 8.17121 1.601 8.24824 1.43294 8.37639C1.26488 8.50455 1.1373 8.6784 1.06547 8.87715C0.993642 9.07591 0.9806 9.29114 1.02791 9.49711C1.07522 9.70308 1.18087 9.89106 1.33223 10.0386L5.96656 14.5557L4.32755 21.6519C4.27778 21.8667 4.29373 22.0915 4.37333 22.2971C4.45293 22.5028 4.5925 22.6797 4.77393 22.8051C4.95537 22.9304 5.17028 22.9983 5.3908 23C5.61131 23.0016 5.82724 22.937 6.01056 22.8145L12.0001 18.822L17.9896 22.8145C18.177 22.9389 18.398 23.0029 18.6228 22.998C18.8477 22.993 19.0656 22.9194 19.2474 22.7869C19.4291 22.6544 19.5659 22.4695 19.6394 22.2569C19.7129 22.0444 19.7195 21.8144 19.6583 21.598L17.6464 14.559L22.6361 10.0694C22.9628 9.7746 23.0827 9.31486 22.9419 8.89802Z"></path>
  </symbol>
  <symbol xmlns="http://www.w3.org/2000/svg" viewBox="0 0 24 24" id="Wallet">
    <path d="M19.2 7.2H4.20002V6.6L17.4 5.544V6.6H19.2V4.8C19.2 3.48 18.1308 2.5536 16.8252 2.7396L4.77602 4.4604C3.46922 4.6476 2.40002 5.88 2.40002 7.2V19.2C2.40002 19.8365 2.65288 20.447 3.10297 20.8971C3.55306 21.3471 4.1635 21.6 4.80002 21.6H19.2C19.8365 21.6 20.447 21.3471 20.8971 20.8971C21.3472 20.447 21.6 19.8365 21.6 19.2V9.6C21.6 8.96348 21.3472 8.35303 20.8971 7.90294C20.447 7.45285 19.8365 7.2 19.2 7.2ZM17.4 15.6072C17.1636 15.6071 16.9294 15.5605 16.711 15.4699C16.4926 15.3793 16.2941 15.2466 16.127 15.0794C15.9598 14.9121 15.8273 14.7136 15.7369 14.4951C15.6464 14.2766 15.5999 14.0425 15.6 13.806C15.6001 13.5695 15.6468 13.3354 15.7373 13.117C15.8279 12.8986 15.9606 12.7001 16.1278 12.533C16.2951 12.3658 16.4936 12.2332 16.7121 12.1428C16.9306 12.0524 17.1648 12.0059 17.4012 12.006C17.8788 12.0062 18.3367 12.196 18.6743 12.5338C19.0118 12.8716 19.2014 13.3296 19.2012 13.8072C19.2011 14.2847 19.0112 14.7427 18.6734 15.0802C18.3356 15.4178 17.8776 15.6074 17.4 15.6072Z" ></path>
  </symbol>
  <symbol xmlns="http://www.w3.org/2000/svg" viewBox="0 0 16 16" id="fire">
    <path d="M13.0328 7.33125C12.7295 6.64853 12.2885 6.03575 11.7375 5.53125L11.2828 5.11406C11.2674 5.10029 11.2488 5.09051 11.2287 5.08559C11.2086 5.08067 11.1876 5.08076 11.1675 5.08585C11.1475 5.09095 11.129 5.10088 11.1137 5.11479C11.0984 5.1287 11.0867 5.14615 11.0797 5.16563L10.8766 5.74844C10.75 6.11406 10.5172 6.4875 10.1875 6.85469C10.1656 6.87813 10.1406 6.88438 10.1234 6.88594C10.1063 6.8875 10.0797 6.88438 10.0562 6.8625C10.0344 6.84375 10.0234 6.81563 10.025 6.7875C10.0828 5.84688 9.80156 4.78594 9.18594 3.63125C8.67656 2.67188 7.96875 1.92344 7.08437 1.40156L6.43906 1.02188C6.35469 0.971876 6.24688 1.0375 6.25156 1.13594L6.28594 1.88594C6.30937 2.39844 6.25 2.85156 6.10938 3.22813C5.9375 3.68906 5.69062 4.11719 5.375 4.50156C5.15535 4.76869 4.90639 5.01031 4.63281 5.22188C3.97391 5.72838 3.43815 6.3774 3.06562 7.12031C2.69402 7.86971 2.50045 8.69478 2.5 9.53125C2.5 10.2688 2.64531 10.9828 2.93281 11.6563C3.21042 12.3046 3.61103 12.8931 4.1125 13.3891C4.61875 13.8891 5.20625 14.2828 5.86094 14.5563C6.53906 14.8406 7.25781 14.9844 8 14.9844C8.74219 14.9844 9.46094 14.8406 10.1391 14.5578C10.7921 14.286 11.386 13.8895 11.8875 13.3906C12.3938 12.8906 12.7906 12.3063 13.0672 11.6578C13.3543 10.9862 13.5015 10.2632 13.5 9.53281C13.5 8.77031 13.3438 8.02969 13.0328 7.33125Z"/>
  </symbol>
  <symbol xmlns="http://www.w3.org/2000/svg" viewBox="0 0 24 24" id="TW">
    <path d="M24 4.3698C23.0997 4.77727 22.1472 5.04573 21.1724 5.16667C22.1968 4.54187 22.9672 3.54926 23.339 2.37501C22.3705 2.9649 21.3127 3.3788 20.2109 3.59897C19.7471 3.09247 19.189 2.68954 18.5709 2.41467C17.9529 2.13979 17.2875 1.99871 16.6155 2.00001C13.8944 2.00001 11.6925 4.26042 11.6925 7.04688C11.6905 7.43446 11.7332 7.8209 11.8195 8.19793C9.86833 8.10264 7.95775 7.58416 6.20998 6.67566C4.46221 5.76715 2.91574 4.48863 1.66949 2.92188C1.23228 3.68965 1.00106 4.56566 0.999998 5.45834C0.999998 7.20834 1.8765 8.75522 3.2 9.66146C2.41586 9.64208 1.64779 9.42589 0.960999 9.03125V9.09375C0.960999 11.5417 2.661 13.5781 4.911 14.0417C4.48789 14.1591 4.05188 14.2187 3.614 14.2188C3.30329 14.2193 2.99328 14.1879 2.6885 14.125C3.314 16.1302 5.1345 17.5886 7.29099 17.6302C5.53868 19.0369 3.3873 19.7973 1.175 19.7917C0.782308 19.7911 0.389982 19.7667 0 19.7187C2.25059 21.2157 4.86671 22.0076 7.53698 21.9999C16.605 21.9999 21.559 14.3072 21.559 7.63542C21.559 7.41668 21.5534 7.19792 21.5434 6.98438C22.5051 6.27191 23.3368 5.38653 24 4.3698Z" ></path>
  </symbol>
</svg>
